HIERARCHY
ROOT Hips
{
	OFFSET 0.00000 0.00000 0.00000
	CHANNELS 6 Xposition Yposition Zposition Zrotation Yrotation Xrotation 
	JOINT LHipJoint
	{
		OFFSET 0 0 0
		CHANNELS 3 Zrotation Yrotation Xrotation
		JOINT LeftHip
		{
			OFFSET 1.44361 -1.63093 0.70831
			CHANNELS 3 Zrotation Yrotation Xrotation
			JOINT LeftKnee
			{
				OFFSET 2.20103 -6.04728 0.00000
				CHANNELS 3 Zrotation Yrotation Xrotation
				JOINT LeftAnkle
				{
					OFFSET 2.54154 -6.98283 0.00000
					CHANNELS 3 Zrotation Yrotation Xrotation
					JOINT LeftToe
					{
						OFFSET 0.05971 -0.16406 1.77582
						CHANNELS 3 Zrotation Yrotation Xrotation
						End Site
						{
							OFFSET 0.00000 -0.00000 0.90832
						}
					}
				}
			}
		}
	}
	JOINT RHipJoint
	{
		OFFSET 0 0 0
		CHANNELS 3 Zrotation Yrotation Xrotation
		JOINT RightHip
		{
			OFFSET -1.65838 -1.63093 0.70830
			CHANNELS 3 Zrotation Yrotation Xrotation
			JOINT RightKnee
			{
				OFFSET -2.26926 -6.23475 0.00000
				CHANNELS 3 Zrotation Yrotation Xrotation
				JOINT RightAnkle
				{
					OFFSET -2.34808 -6.45129 0.00000
					CHANNELS 3 Zrotation Yrotation Xrotation
					JOINT RightToe
					{
						OFFSET -0.18633 -0.51195 1.68539
						CHANNELS 3 Zrotation Yrotation Xrotation
						End Site
						{
							OFFSET -0.00000 -0.00000 0.88927
						}
					}
				}
			}
		}
	}
	JOINT lowerback
	{
		OFFSET 0 0 0
		CHANNELS 3 Zrotation Yrotation Xrotation
		JOINT Chest
		{
			OFFSET -0.10393 2.01691 0.06920
			CHANNELS 3 Zrotation Yrotation Xrotation
			JOINT Chest2
			{
				OFFSET 0.04092 2.01302 -0.05283
				CHANNELS 3 Zrotation Yrotation Xrotation
				JOINT lowerneck
				{
					OFFSET 0 0 0
					CHANNELS 3 Zrotation Yrotation Xrotation
					JOINT Neck
					{
						OFFSET -0.02870 1.58978 -0.03113
						CHANNELS 3 Zrotation Yrotation Xrotation
						JOINT Head
						{
							OFFSET 0.11532 1.54326 -0.29195
							CHANNELS 3 Zrotation Yrotation Xrotation
							End Site
							{
								OFFSET 0.04056 1.59999 -0.09535
							}
						}
					}
				}
				JOINT LeftCollar
				{
					OFFSET 0 0 0
					CHANNELS 3 Zrotation Yrotation Xrotation
					JOINT LeftShoulder
					{
						OFFSET 3.30641 1.15764 0.01104
CHANNELS 3 Zrotation Xrotation Yrotation
						JOINT LeftElbow
						{
OFFSET 0 -4.632080 0.000000
CHANNELS 3 Zrotation Xrotation Yrotation
							JOINT LeftWrist
							{
OFFSET 0 -3.419240 -0.000000
CHANNELS 3 Zrotation Xrotation Yrotation
								JOINT lhand
								{
									OFFSET 0 0 0
CHANNELS 3 Zrotation Xrotation Yrotation
									JOINT LFingers
									{
OFFSET 0 -0.625370 -0.000000
CHANNELS 3 Zrotation Xrotation Yrotation
										End Site
										{
OFFSET 0 -0.504190 -0.000000
										}
									}
								}
								JOINT LThumb
								{
OFFSET 0 0.000000 0.000000
CHANNELS 3 Zrotation Xrotation Yrotation
									End Site
									{
OFFSET 0 -0.511890 0.511890
									}
								}
							}
						}
					}
				}
				JOINT RightCollar
				{
					OFFSET 0 0 0
					CHANNELS 3 Zrotation Yrotation Xrotation
					JOINT RightShoulder
					{
						OFFSET -3.78081 1.02180 -0.16609
CHANNELS 3 Zrotation Xrotation Yrotation
						JOINT RightElbow
						{
OFFSET 0 -4.406400 -0.000000
CHANNELS 3 Zrotation Xrotation Yrotation
							JOINT RightWrist
							{
OFFSET 0 -3.446750 0.000000
CHANNELS 3 Zrotation Xrotation Yrotation
								JOINT rhand
								{
									OFFSET 0 0 0
CHANNELS 3 Zrotation Xrotation Yrotation
									JOINT RFingers
									{
OFFSET 0 -0.513670 -0.000000
CHANNELS 3 Zrotation Xrotation Yrotation
										End Site
										{
OFFSET 0 -0.414140 -0.000000
										}
									}
								}
								JOINT RThumb
								{
OFFSET 0 0.000000 0.000000
CHANNELS 3 Zrotation Xrotation Yrotation
									End Site
									{
OFFSET 0 -0.420460 0.420460
									}
								}
							}
						}
					}
				}
			}
		}
	}
}
MOTION
Frames: 4
Frame Time: 0.008333333333333333
10.343571 17.199352 15.860778 173.061220 -2.417357 -163.056222 0.000000 0.000000 0.000000 -16.560155 -13.689886 1.520883 0.321565 3.644756 10.079281 0.928506 -0.252107 -18.132279 13.128269 -18.827871 -69.523228 0.000000 0.000000 0.000000 -3.147243 13.995213 -23.091092 -0.371294 -3.912849 10.831637 0.102422 -7.947305 -8.836435 -3.331580 11.213469 -33.003159 -3.125740 -5.415635 -4.896235 6.655322 -7.670770 1.149035 7.977046 -4.174718 5.292725 0.922339 -2.734045 -13.182926 -1.147735 -1.496003 32.252534 -0.644993 0.091655 12.924604 0.000000 0.000000 0.000000 -1.062945 -18.873118 -47.906431 15.182212 -24.399077 3.301060 26.971711 6.203440 20.684431 0.000000 0.000000 0.000000 -7.125000 0.000000 0.000000 -1.002860 7.023399 -0.873277 0.000000 0.000000 0.000000 -5.811138 9.197577 -53.736812 -6.278749 -10.726257 -0.589990 -5.724335 65.905017 37.974741 0.000000 0.000000 0.000000 7.125000 0.000000 0.000000 36.498173 64.458139 -18.341042
10.448953 17.250367 15.764264 172.362678 -2.422721 -162.392070 0.000000 0.000000 0.000000 -16.627732 -13.786867 0.691799 0.338159 3.736627 10.336932 0.897528 -0.822181 -17.651358 13.244097 -18.868406 -69.881726 0.000000 0.000000 0.000000 -3.579019 13.757743 -23.125331 -0.335400 -3.719844 10.289947 0.103236 -7.972662 -8.858254 -3.228045 11.054574 -32.465114 -3.186101 -5.453580 -5.126854 6.676285 -7.704544 0.994025 8.014877 -4.185758 5.276330 1.004551 -2.648881 -13.099601 -1.433787 -1.337176 32.000411 -0.747196 0.120005 12.799034 0.000000 0.000000 0.000000 -0.749478 -18.712961 -48.674424 15.520818 -24.865841 3.442486 26.119479 6.264988 21.078122 0.000000 0.000000 0.000000 -7.125000 0.000000 0.000000 -1.588291 6.755037 -1.392336 0.000000 0.000000 0.000000 -6.153817 9.092037 -51.393868 -6.353766 -10.850914 -0.604095 -5.332294 62.824602 37.783140 0.000000 0.000000 0.000000 7.125000 0.000000 0.000000 36.639323 64.200307 -18.202910
10.550359 17.294265 15.670935 171.722414 -2.314926 -161.968935 0.000000 0.000000 0.000000 -16.728438 -13.745412 0.182323 0.345578 3.777281 10.450977 0.883730 -1.456249 -17.338367 13.324680 -18.896253 -70.130895 0.000000 0.000000 0.000000 -3.930487 13.706136 -22.949864 -0.305518 -3.552490 9.821029 0.098128 -7.940601 -8.946056 -3.115598 10.879118 -31.874158 -3.284057 -5.431268 -5.164724 6.668772 -7.658297 0.926455 8.068366 -4.159997 5.230304 0.958408 -2.596737 -12.945860 -1.618039 -1.234769 31.662863 -0.795032 0.118909 12.626547 0.000000 0.000000 0.000000 -0.422954 -18.584876 -49.374039 15.862796 -25.333373 3.587578 25.160389 6.547175 21.676713 0.000000 0.000000 0.000000 -7.125000 0.000000 0.000000 -2.261023 6.288090 -2.005104 0.000000 0.000000 0.000000 -6.488083 8.974926 -49.390789 -6.430631 -10.978433 -0.618642 -4.791480 60.028215 37.798505 0.000000 0.000000 0.000000 7.125000 0.000000 0.000000 37.201951 64.064343 -18.405181
10.647931 17.331396 15.581867 171.109316 -2.136278 -161.740689 0.000000 0.000000 0.000000 -16.897889 -13.646198 -0.084003 0.347421 3.787335 10.479123 0.882452 -2.055956 -17.177802 13.371842 -18.912348 -70.276556 0.000000 0.000000 0.000000 -4.247887 13.797850 -22.626989 -0.283820 -3.426075 9.467346 0.087329 -7.862737 -9.112664 -3.034113 10.750132 -31.441678 -3.452561 -5.386360 -5.036881 6.638104 -7.578248 0.912995 8.154828 -4.119794 5.147816 0.810655 -2.558244 -12.682901 -1.716762 -1.155319 31.259106 -0.794164 0.107028 12.407419 0.000000 0.000000 0.000000 -0.108118 -18.453960 -49.892747 16.191934 -25.779721 3.729318 24.280923 6.998625 22.158301 0.000000 0.000000 0.000000 -7.125000 0.000000 0.000000 -2.868501 5.931450 -2.559450 0.000000 0.000000 0.000000 -6.849757 8.816033 -47.880415 -6.489321 -11.075675 -0.629816 -4.247650 57.885557 37.962930 0.000000 0.000000 0.000000 7.125000 0.000000 0.000000 37.962282 64.044189 -18.817437
